<?xml version="1.0" encoding="UTF-8"?>
<svg xmlns="http://www.w3.org/2000/svg" xmlns:xlink="http://www.w3.org/1999/xlink" width="1190.25pt" height="1683.749945pt" viewBox="0 0 1190.25 1683.749945" version="1.2">
<defs>
<clipPath id="clip1">
  <path d="M 33 1281.09375 L 257 1281.09375 L 257 1625 L 33 1625 Z M 33 1281.09375 "/>
</clipPath>
<clipPath id="clip2">
  <path d="M 78 1310 L 222 1310 L 222 1683.09375 L 78 1683.09375 Z M 78 1310 "/>
</clipPath>
</defs>
<g id="surface1">
<g clip-path="url(#clip1)" clip-rule="nonzero">
<path style=" stroke:none;fill-rule:nonzero;fill:rgb(50.19989%,79.998779%,15.689087%);fill-opacity:1;" d="M 250.835938 1466.894531 C 278.003906 1556.925781 203.589844 1624.277344 203.589844 1624.277344 C 203.589844 1624.277344 78.734375 1614.664062 46.21875 1509.953125 C -0.0195312 1361.042969 97.03125 1281.128906 97.03125 1281.128906 C 97.03125 1281.128906 92.609375 1315.316406 128.488281 1342.222656 C 171.40625 1374.410156 226.664062 1386.789062 250.835938 1466.894531 "/>
</g>
<g clip-path="url(#clip2)" clip-rule="nonzero">
<path style=" stroke:none;fill-rule:nonzero;fill:rgb(42.349243%,67.83905%,12.939453%);fill-opacity:1;" d="M 197.957031 1683.539062 C 197.957031 1683.539062 215.308594 1620.574219 173.023438 1520.320312 C 145.578125 1455.253906 114.855469 1449.070312 89.511719 1395.101562 C 67.964844 1349.199219 86.078125 1310.863281 86.078125 1310.863281 C 86.078125 1310.863281 73.480469 1344.609375 93.527344 1388.695312 C 110.707031 1426.464844 158.03125 1441.652344 186.453125 1497.246094 C 224.390625 1571.449219 221.4375 1676.230469 221.4375 1676.230469 L 197.957031 1683.539062 "/>
</g>
</g>
</svg>
