<?xml version="1.0" encoding="UTF-8"?>
<svg xmlns="http://www.w3.org/2000/svg" xmlns:xlink="http://www.w3.org/1999/xlink" width="1190.25pt" height="1683.749945pt" viewBox="0 0 1190.25 1683.749945" version="1.2">
<defs>
<clipPath id="clip1">
  <path d="M 86 579 L 1189.5 579 L 1189.5 1380.214844 L 86 1380.214844 Z M 86 579 "/>
</clipPath>
</defs>
<g id="surface1">
<g clip-path="url(#clip1)" clip-rule="nonzero">
<path style=" stroke:none;fill-rule:nonzero;fill:rgb(0%,0%,0%);fill-opacity:1;" d="M 1202.460938 1382.074219 L 1202.460938 594.824219 L 1245.164062 594.824219 L 1245.164062 718.660156 C 1250.214844 713.164062 1254.859375 707.34375 1259.101562 701.203125 C 1294.769531 627.210938 1369.992188 580.511719 1452.117188 581.433594 C 1549.480469 578.53125 1628.597656 614.570312 1675.09375 701.203125 C 1678.777344 707.902344 1682.253906 714.703125 1685.53125 721.609375 C 1688.808594 728.511719 1691.878906 735.507812 1694.738281 742.597656 C 1697.597656 749.683594 1700.246094 756.851562 1702.679688 764.097656 C 1705.113281 771.339844 1707.328125 778.652344 1709.324219 786.03125 C 1711.324219 793.40625 1713.101562 800.835938 1714.65625 808.320312 C 1716.210938 815.804688 1717.542969 823.324219 1718.648438 830.886719 C 1719.757812 838.449219 1720.636719 846.039062 1721.292969 853.652344 C 1721.949219 861.269531 1722.378906 868.894531 1722.578125 876.535156 C 1722.78125 884.175781 1722.753906 891.816406 1722.5 899.457031 C 1722.246094 907.09375 1721.765625 914.71875 1721.058594 922.328125 C 1720.347656 929.9375 1719.414062 937.519531 1718.253906 945.074219 C 1717.097656 952.628906 1715.710938 960.144531 1714.105469 967.617188 C 1712.5 975.085938 1710.671875 982.503906 1708.621094 989.867188 C 1706.574219 997.230469 1704.308594 1004.527344 1701.824219 1011.757812 C 1699.339844 1018.984375 1696.644531 1026.132812 1693.738281 1033.199219 C 1690.828125 1040.269531 1687.710938 1047.242188 1684.386719 1054.125 C 1641.070312 1151.210938 1534.074219 1199.480469 1419.527344 1181.75 C 1415.09375 1181.375 1410.675781 1180.859375 1406.273438 1180.207031 C 1401.871094 1179.554688 1397.492188 1178.765625 1393.140625 1177.839844 C 1388.789062 1176.917969 1384.46875 1175.855469 1380.179688 1174.664062 C 1375.894531 1173.46875 1371.648438 1172.140625 1367.441406 1170.683594 C 1363.238281 1169.222656 1359.085938 1167.632812 1354.980469 1165.917969 C 1350.875 1164.199219 1346.824219 1162.355469 1342.835938 1160.382812 C 1338.84375 1158.414062 1334.921875 1156.320312 1331.058594 1154.105469 C 1327.199219 1151.890625 1323.414062 1149.558594 1319.699219 1147.105469 C 1315.984375 1144.65625 1312.351562 1142.089844 1308.796875 1139.414062 C 1305.242188 1136.734375 1301.773438 1133.949219 1298.390625 1131.058594 C 1295.011719 1128.164062 1291.722656 1125.167969 1288.527344 1122.070312 C 1285.335938 1118.96875 1282.238281 1115.773438 1279.246094 1112.484375 C 1276.25 1109.191406 1273.359375 1105.808594 1270.574219 1102.339844 C 1267.792969 1098.867188 1265.117188 1095.3125 1262.554688 1091.671875 C 1259.992188 1088.035156 1257.546875 1084.320312 1255.214844 1080.53125 C 1252.882812 1076.738281 1250.671875 1072.878906 1248.582031 1068.949219 L 1248.582031 1382.039062 Z M 1245.164062 873.308594 L 1254.730469 965.75 C 1271.605469 1070.964844 1333.816406 1133.140625 1431.484375 1144.824219 C 1434.324219 1145.289062 1437.171875 1145.695312 1440.027344 1146.039062 C 1442.882812 1146.382812 1445.746094 1146.667969 1448.613281 1146.886719 C 1451.480469 1147.109375 1454.355469 1147.269531 1457.230469 1147.367188 C 1460.105469 1147.464844 1462.980469 1147.5 1465.859375 1147.476562 C 1468.734375 1147.449219 1471.609375 1147.363281 1474.484375 1147.214844 C 1477.355469 1147.066406 1480.222656 1146.855469 1483.089844 1146.582031 C 1485.953125 1146.308594 1488.808594 1145.976562 1491.660156 1145.582031 C 1494.507812 1145.1875 1497.347656 1144.730469 1500.179688 1144.210938 C 1503.007812 1143.695312 1505.824219 1143.117188 1508.632812 1142.480469 C 1511.4375 1141.84375 1514.226562 1141.144531 1517 1140.386719 C 1519.777344 1139.628906 1522.535156 1138.808594 1525.273438 1137.933594 C 1528.015625 1137.058594 1530.734375 1136.121094 1533.433594 1135.128906 C 1536.136719 1134.136719 1538.8125 1133.085938 1541.46875 1131.976562 C 1544.121094 1130.867188 1546.75 1129.703125 1549.355469 1128.480469 C 1551.960938 1127.261719 1554.539062 1125.984375 1557.089844 1124.652344 C 1559.636719 1123.320312 1562.160156 1121.933594 1564.648438 1120.492188 C 1567.140625 1119.050781 1569.597656 1117.558594 1572.023438 1116.011719 C 1574.449219 1114.46875 1576.839844 1112.871094 1579.199219 1111.222656 C 1581.554688 1109.570312 1583.878906 1107.875 1586.164062 1106.125 C 1588.445312 1104.375 1590.691406 1102.578125 1592.898438 1100.734375 C 1595.105469 1098.890625 1597.273438 1096.996094 1599.398438 1095.058594 C 1601.527344 1093.121094 1603.609375 1091.136719 1605.652344 1089.109375 C 1607.691406 1087.082031 1609.6875 1085.011719 1611.640625 1082.898438 C 1613.589844 1080.785156 1615.496094 1078.632812 1617.355469 1076.4375 C 1619.214844 1074.242188 1621.027344 1072.007812 1622.789062 1069.734375 C 1624.554688 1067.460938 1626.269531 1065.152344 1627.933594 1062.804688 C 1629.597656 1060.457031 1631.207031 1058.074219 1632.769531 1055.660156 C 1634.332031 1053.242188 1635.839844 1050.796875 1637.296875 1048.3125 C 1638.753906 1045.832031 1640.15625 1043.320312 1641.507812 1040.78125 C 1642.855469 1038.238281 1644.148438 1035.671875 1645.386719 1033.074219 C 1646.625 1030.476562 1647.804688 1027.855469 1648.933594 1025.207031 C 1650.058594 1022.558594 1651.125 1019.890625 1652.136719 1017.195312 C 1690.125 926.667969 1687.324219 824.183594 1644.621094 735.777344 C 1643.539062 733.359375 1642.414062 730.964844 1641.234375 728.59375 C 1640.058594 726.21875 1638.835938 723.875 1637.5625 721.550781 C 1636.292969 719.230469 1634.972656 716.933594 1633.609375 714.664062 C 1632.246094 712.394531 1630.835938 710.15625 1629.382812 707.941406 C 1627.925781 705.730469 1626.429688 703.546875 1624.886719 701.398438 C 1623.34375 699.246094 1621.757812 697.125 1620.128906 695.039062 C 1618.5 692.949219 1616.832031 690.894531 1615.121094 688.875 C 1613.410156 686.855469 1611.65625 684.871094 1609.867188 682.921875 C 1608.074219 680.972656 1606.246094 679.058594 1604.375 677.183594 C 1602.507812 675.308594 1600.601562 673.46875 1598.660156 671.671875 C 1596.714844 669.871094 1594.738281 668.113281 1592.726562 666.394531 C 1590.710938 664.675781 1588.664062 663 1586.582031 661.363281 C 1584.5 659.726562 1582.386719 658.132812 1580.242188 656.582031 C 1578.097656 655.03125 1575.921875 653.523438 1573.714844 652.058594 C 1571.507812 650.597656 1569.273438 649.179688 1567.007812 647.804688 C 1564.746094 646.433594 1562.453125 645.105469 1560.136719 643.824219 C 1557.820312 642.546875 1555.476562 641.3125 1553.109375 640.125 C 1550.742188 638.941406 1548.351562 637.800781 1545.9375 636.710938 C 1543.527344 635.625 1541.09375 634.582031 1538.636719 633.59375 C 1536.183594 632.601562 1533.707031 631.660156 1531.214844 630.769531 C 1528.722656 629.875 1526.210938 629.035156 1523.683594 628.246094 C 1521.15625 627.457031 1518.617188 626.71875 1516.058594 626.03125 C 1513.503906 625.34375 1510.933594 624.707031 1508.351562 624.121094 C 1505.769531 623.539062 1503.175781 623.007812 1500.570312 622.527344 C 1497.96875 622.050781 1495.355469 621.625 1492.734375 621.25 C 1490.113281 620.875 1487.484375 620.554688 1484.851562 620.289062 C 1482.214844 620.019531 1479.578125 619.804688 1476.933594 619.644531 C 1474.292969 619.484375 1471.648438 619.375 1469 619.324219 C 1466.355469 619.269531 1463.707031 619.265625 1461.058594 619.320312 C 1458.414062 619.371094 1455.769531 619.480469 1453.125 619.636719 C 1450.480469 619.796875 1447.84375 620.011719 1445.210938 620.277344 C 1442.574219 620.542969 1439.949219 620.859375 1437.324219 621.234375 C 1434.863281 621.410156 1432.40625 621.636719 1429.953125 621.914062 C 1427.5 622.1875 1425.050781 622.507812 1422.609375 622.875 C 1420.167969 623.246094 1417.734375 623.660156 1415.3125 624.125 C 1412.886719 624.585938 1410.46875 625.097656 1408.066406 625.652344 C 1405.660156 626.207031 1403.265625 626.808594 1400.882812 627.457031 C 1398.503906 628.105469 1396.132812 628.800781 1393.777344 629.542969 C 1391.421875 630.28125 1389.082031 631.066406 1386.757812 631.898438 C 1384.433594 632.726562 1382.125 633.601562 1379.832031 634.523438 C 1377.542969 635.441406 1375.269531 636.40625 1373.015625 637.414062 C 1370.761719 638.421875 1368.527344 639.472656 1366.316406 640.566406 C 1364.101562 641.660156 1361.910156 642.796875 1359.742188 643.976562 C 1357.574219 645.152344 1355.425781 646.375 1353.304688 647.636719 C 1351.183594 648.894531 1349.085938 650.199219 1347.011719 651.539062 C 1344.941406 652.882812 1342.894531 654.265625 1340.878906 655.6875 C 1338.859375 657.109375 1336.871094 658.570312 1334.90625 660.066406 C 1332.945312 661.566406 1331.011719 663.101562 1329.109375 664.675781 C 1327.207031 666.246094 1325.335938 667.855469 1323.496094 669.503906 C 1321.65625 671.148438 1319.847656 672.828125 1318.070312 674.542969 C 1316.296875 676.257812 1314.554688 678.007812 1312.847656 679.789062 C 1311.136719 681.574219 1309.464844 683.386719 1307.828125 685.234375 C 1306.191406 687.082031 1304.589844 688.960938 1303.023438 690.871094 C 1301.457031 692.777344 1299.929688 694.71875 1298.441406 696.6875 C 1296.949219 698.652344 1295.496094 700.652344 1294.085938 702.675781 C 1292.671875 704.699219 1291.296875 706.75 1289.964844 708.828125 C 1288.628906 710.90625 1287.335938 713.007812 1286.082031 715.132812 C 1284.832031 717.261719 1283.621094 719.414062 1282.449219 721.585938 C 1281.28125 723.761719 1280.152344 725.957031 1279.070312 728.175781 C 1277.984375 730.394531 1276.945312 732.628906 1275.945312 734.886719 C 1274.949219 737.148438 1273.992188 739.421875 1273.082031 741.71875 C 1272.171875 744.011719 1271.308594 746.324219 1270.484375 748.652344 C 1269.664062 750.980469 1268.890625 753.324219 1268.160156 755.683594 C 1267.429688 758.039062 1266.746094 760.414062 1266.105469 762.796875 C 1257.003906 799.222656 1250.023438 836.046875 1245.164062 873.273438 Z M 2594.496094 980.300781 C 2594.09375 983.730469 2593.617188 987.144531 2593.0625 990.550781 C 2592.507812 993.957031 2591.878906 997.351562 2591.171875 1000.726562 C 2590.464844 1004.105469 2589.683594 1007.464844 2588.828125 1010.808594 C 2587.96875 1014.152344 2587.035156 1017.472656 2586.03125 1020.773438 C 2585.023438 1024.074219 2583.941406 1027.351562 2582.789062 1030.601562 C 2581.632812 1033.855469 2580.40625 1037.078125 2579.105469 1040.273438 C 2577.808594 1043.472656 2576.4375 1046.636719 2574.996094 1049.773438 C 2573.554688 1052.910156 2572.042969 1056.011719 2570.460938 1059.078125 C 2568.878906 1062.144531 2567.230469 1065.175781 2565.515625 1068.167969 C 2563.796875 1071.160156 2562.011719 1074.113281 2560.164062 1077.027344 C 2558.3125 1079.941406 2556.398438 1082.808594 2554.417969 1085.636719 C 2552.4375 1088.464844 2550.398438 1091.246094 2548.292969 1093.980469 C 2546.1875 1096.714844 2544.023438 1099.402344 2541.800781 1102.039062 C 2539.574219 1104.675781 2537.292969 1107.261719 2534.949219 1109.796875 C 2532.609375 1112.332031 2530.210938 1114.8125 2527.757812 1117.242188 C 2525.304688 1119.667969 2522.800781 1122.039062 2520.242188 1124.355469 C 2517.679688 1126.667969 2515.070312 1128.925781 2512.410156 1131.121094 C 2509.75 1133.320312 2507.039062 1135.457031 2504.28125 1137.53125 C 2501.527344 1139.605469 2498.722656 1141.617188 2495.875 1143.570312 C 2493.03125 1145.519531 2490.140625 1147.402344 2487.207031 1149.222656 C 2484.273438 1151.042969 2481.304688 1152.792969 2478.292969 1154.480469 C 2475.28125 1156.164062 2472.234375 1157.785156 2469.152344 1159.332031 C 2466.066406 1160.882812 2462.949219 1162.359375 2459.800781 1163.769531 C 2456.648438 1165.179688 2453.46875 1166.515625 2450.257812 1167.78125 C 2447.046875 1169.046875 2443.8125 1170.238281 2440.546875 1171.359375 C 2437.285156 1172.480469 2433.996094 1173.527344 2430.683594 1174.5 C 2427.375 1175.472656 2424.042969 1176.367188 2420.691406 1177.191406 C 2417.339844 1178.015625 2413.972656 1178.761719 2410.585938 1179.433594 C 2407.203125 1180.105469 2403.804688 1180.699219 2400.390625 1181.21875 C 2396.980469 1181.734375 2393.558594 1182.175781 2390.125 1182.542969 C 2386.695312 1182.90625 2383.257812 1183.195312 2379.8125 1183.402344 C 2376.367188 1183.613281 2372.921875 1183.746094 2369.46875 1183.800781 C 2190.394531 1192.820312 2106.355469 1073.902344 2092.996094 936.679688 C 2091.84375 927.421875 2091.019531 918.136719 2090.519531 908.820312 C 2090.023438 899.503906 2089.855469 890.183594 2090.015625 880.855469 C 2090.179688 871.53125 2090.667969 862.21875 2091.488281 852.925781 C 2092.308594 843.632812 2093.453125 834.382812 2094.925781 825.171875 C 2096.402344 815.960938 2098.199219 806.8125 2100.316406 797.726562 C 2102.4375 788.644531 2104.875 779.644531 2107.632812 770.734375 C 2110.386719 761.820312 2113.457031 753.015625 2116.832031 744.320312 C 2120.210938 735.625 2123.894531 727.0625 2127.878906 718.625 C 2129.261719 715.738281 2130.699219 712.878906 2132.199219 710.050781 C 2133.695312 707.21875 2135.246094 704.417969 2136.851562 701.648438 C 2138.460938 698.878906 2140.121094 696.144531 2141.835938 693.4375 C 2143.550781 690.734375 2145.320312 688.066406 2147.140625 685.433594 C 2148.960938 682.796875 2150.832031 680.203125 2152.753906 677.640625 C 2154.679688 675.082031 2156.652344 672.558594 2158.675781 670.078125 C 2160.699219 667.597656 2162.769531 665.15625 2164.886719 662.753906 C 2167.007812 660.355469 2169.171875 657.996094 2171.386719 655.683594 C 2173.597656 653.367188 2175.855469 651.097656 2178.15625 648.871094 C 2180.457031 646.644531 2182.804688 644.464844 2185.191406 642.332031 C 2187.578125 640.199219 2190.007812 638.113281 2192.480469 636.078125 C 2194.949219 634.039062 2197.457031 632.054688 2200.007812 630.113281 C 2202.554688 628.175781 2205.140625 626.289062 2207.765625 624.453125 C 2210.390625 622.617188 2213.046875 620.835938 2215.742188 619.105469 C 2218.433594 617.375 2221.164062 615.695312 2223.921875 614.074219 C 2226.683594 612.449219 2229.472656 610.882812 2232.296875 609.367188 C 2235.117188 607.855469 2237.96875 606.398438 2240.847656 605 C 2243.726562 603.597656 2246.632812 602.253906 2249.566406 600.96875 C 2252.496094 599.683594 2255.453125 598.457031 2258.4375 597.289062 C 2261.417969 596.117188 2264.417969 595.007812 2267.445312 593.957031 C 2270.46875 592.910156 2273.515625 591.917969 2276.578125 590.988281 C 2279.640625 590.058594 2282.722656 589.1875 2285.820312 588.378906 C 2288.917969 587.574219 2292.03125 586.824219 2295.160156 586.140625 C 2298.289062 585.453125 2301.425781 584.832031 2304.578125 584.269531 C 2307.734375 583.707031 2310.894531 583.210938 2314.066406 582.773438 C 2317.238281 582.335938 2320.417969 581.960938 2323.605469 581.652344 C 2326.792969 581.339844 2329.984375 581.09375 2333.179688 580.90625 C 2336.378906 580.722656 2339.578125 580.601562 2342.777344 580.542969 C 2345.980469 580.484375 2349.179688 580.488281 2352.382812 580.554688 C 2355.582031 580.625 2358.78125 580.753906 2361.976562 580.949219 C 2365.175781 581.144531 2368.363281 581.398438 2371.550781 581.71875 C 2374.738281 582.039062 2377.914062 582.421875 2381.085938 582.871094 C 2384.101562 583.125 2387.109375 583.441406 2390.113281 583.8125 C 2393.113281 584.1875 2396.109375 584.621094 2399.09375 585.109375 C 2402.082031 585.601562 2405.054688 586.148438 2408.019531 586.757812 C 2410.984375 587.363281 2413.9375 588.027344 2416.875 588.75 C 2419.8125 589.46875 2422.738281 590.25 2425.644531 591.085938 C 2428.554688 591.921875 2431.445312 592.8125 2434.316406 593.761719 C 2437.191406 594.710938 2440.042969 595.714844 2442.878906 596.773438 C 2445.710938 597.835938 2448.523438 598.949219 2451.316406 600.117188 C 2454.105469 601.289062 2456.871094 602.511719 2459.617188 603.789062 C 2462.359375 605.066406 2465.074219 606.398438 2467.765625 607.78125 C 2470.457031 609.164062 2473.121094 610.601562 2475.753906 612.089844 C 2478.390625 613.574219 2480.996094 615.113281 2483.570312 616.703125 C 2486.144531 618.292969 2488.6875 619.929688 2491.199219 621.621094 C 2493.710938 623.308594 2496.1875 625.042969 2498.628906 626.828125 C 2501.074219 628.613281 2503.480469 630.445312 2505.851562 632.324219 C 2508.222656 634.203125 2510.558594 636.128906 2512.855469 638.097656 C 2515.152344 640.070312 2517.410156 642.082031 2519.625 644.140625 C 2521.84375 646.199219 2524.023438 648.300781 2526.15625 650.445312 C 2528.292969 652.585938 2530.386719 654.769531 2532.4375 656.996094 C 2534.488281 659.21875 2536.496094 661.484375 2538.457031 663.789062 C 2540.421875 666.089844 2542.335938 668.429688 2544.207031 670.808594 C 2546.078125 673.1875 2547.902344 675.601562 2549.679688 678.046875 C 2551.457031 680.496094 2553.1875 682.980469 2554.867188 685.496094 C 2556.546875 688.011719 2558.175781 690.5625 2559.757812 693.140625 C 2561.339844 695.722656 2562.867188 698.332031 2564.347656 700.972656 C 2565.824219 703.613281 2567.253906 706.277344 2568.628906 708.976562 C 2570.003906 711.671875 2571.324219 714.390625 2572.59375 717.136719 C 2573.859375 719.886719 2575.074219 722.65625 2576.238281 725.449219 C 2577.398438 728.246094 2578.503906 731.0625 2579.550781 733.898438 C 2580.601562 736.734375 2581.597656 739.59375 2582.539062 742.46875 C 2583.476562 745.34375 2584.359375 748.238281 2585.183594 751.148438 C 2586.011719 754.0625 2586.78125 756.988281 2587.492188 759.925781 C 2596.597656 803.167969 2603.28125 846.78125 2607.546875 890.765625 L 2137.238281 890.765625 C 2128.527344 1015.179688 2195.382812 1115.207031 2290.148438 1139.324219 C 2408.175781 1168.359375 2509.054688 1117.222656 2545.679688 1005 C 2553.808594 976.203125 2568.636719 972.136719 2594.804688 980.300781 Z M 2136.894531 850.933594 L 2557.566406 850.933594 C 2554.9375 718.386719 2472.402344 622.050781 2360.453125 620.960938 C 2234.050781 618.910156 2142.394531 711.382812 2136.894531 850.933594 Z M 2681.4375 983.207031 L 2722.671875 983.207031 C 2722.859375 986.980469 2723.175781 990.746094 2723.625 994.496094 C 2724.070312 998.25 2724.644531 1001.984375 2725.347656 1005.699219 C 2726.050781 1009.410156 2726.878906 1013.097656 2727.832031 1016.753906 C 2728.789062 1020.410156 2729.867188 1024.03125 2731.070312 1027.613281 C 2732.273438 1031.195312 2733.597656 1034.734375 2735.046875 1038.226562 C 2736.492188 1041.71875 2738.054688 1045.15625 2739.738281 1048.539062 C 2741.417969 1051.925781 2743.214844 1055.246094 2745.125 1058.507812 C 2747.035156 1061.769531 2749.050781 1064.964844 2751.179688 1068.085938 C 2753.308594 1071.210938 2755.542969 1074.257812 2757.878906 1077.226562 C 2760.21875 1080.195312 2762.652344 1083.082031 2765.1875 1085.886719 C 2767.726562 1088.6875 2770.351562 1091.402344 2773.074219 1094.023438 C 2775.796875 1096.648438 2778.605469 1099.171875 2781.5 1101.601562 C 2784.394531 1104.035156 2787.367188 1106.363281 2790.421875 1108.585938 C 2793.476562 1110.8125 2796.605469 1112.933594 2799.804688 1114.945312 C 2803.003906 1116.957031 2806.269531 1118.855469 2809.597656 1120.644531 C 2812.929688 1122.429688 2816.316406 1124.101562 2819.761719 1125.660156 C 2824.09375 1127.609375 2828.480469 1129.4375 2832.914062 1131.140625 C 2837.351562 1132.84375 2841.832031 1134.421875 2846.355469 1135.875 C 2850.882812 1137.328125 2855.441406 1138.652344 2860.042969 1139.847656 C 2864.640625 1141.042969 2869.269531 1142.109375 2873.929688 1143.046875 C 2878.589844 1143.980469 2883.269531 1144.785156 2887.976562 1145.457031 C 2892.679688 1146.132812 2897.398438 1146.671875 2902.132812 1147.082031 C 2906.867188 1147.488281 2911.609375 1147.761719 2916.363281 1147.90625 C 2921.113281 1148.046875 2925.863281 1148.054688 2930.613281 1147.929688 C 2935.363281 1147.804688 2940.105469 1147.546875 2944.84375 1147.152344 C 2949.578125 1146.761719 2954.300781 1146.238281 2959.007812 1145.582031 C 2963.714844 1144.925781 2968.398438 1144.136719 2973.058594 1143.214844 C 2977.722656 1142.296875 2982.355469 1141.246094 2986.960938 1140.066406 C 2991.5625 1138.886719 2996.128906 1137.578125 3000.660156 1136.140625 C 3005.1875 1134.703125 3009.675781 1133.140625 3014.117188 1131.453125 C 3018.558594 1129.765625 3022.949219 1127.953125 3027.289062 1126.019531 C 3031.632812 1124.082031 3035.914062 1122.027344 3040.140625 1119.851562 C 3042.433594 1118.816406 3044.6875 1117.699219 3046.898438 1116.492188 C 3049.105469 1115.289062 3051.269531 1114 3053.378906 1112.628906 C 3055.492188 1111.261719 3057.546875 1109.8125 3059.550781 1108.285156 C 3061.550781 1106.757812 3063.492188 1105.15625 3065.371094 1103.484375 C 3067.25 1101.808594 3069.0625 1100.066406 3070.8125 1098.253906 C 3072.558594 1096.441406 3074.230469 1094.5625 3075.835938 1092.621094 C 3077.4375 1090.683594 3078.964844 1088.683594 3080.417969 1086.625 C 3081.867188 1084.570312 3083.238281 1082.460938 3084.53125 1080.300781 C 3085.820312 1078.136719 3087.027344 1075.929688 3088.148438 1073.675781 C 3089.269531 1071.421875 3090.304688 1069.132812 3091.25 1066.796875 C 3092.199219 1064.464844 3093.054688 1062.101562 3093.824219 1059.703125 C 3094.589844 1057.304688 3095.265625 1054.882812 3095.847656 1052.433594 C 3096.429688 1049.984375 3096.917969 1047.519531 3097.3125 1045.03125 C 3097.707031 1042.546875 3098.003906 1040.046875 3098.210938 1037.539062 C 3098.414062 1035.03125 3098.519531 1032.515625 3098.535156 1030 C 3098.546875 1027.480469 3098.460938 1024.96875 3098.28125 1022.457031 C 3098.414062 1020.039062 3098.449219 1017.617188 3098.382812 1015.195312 C 3098.320312 1012.773438 3098.160156 1010.359375 3097.898438 1007.949219 C 3097.640625 1005.539062 3097.285156 1003.144531 3096.832031 1000.765625 C 3096.378906 998.386719 3095.828125 996.027344 3095.1875 993.691406 C 3094.542969 991.355469 3093.804688 989.050781 3092.976562 986.773438 C 3092.144531 984.496094 3091.222656 982.257812 3090.210938 980.058594 C 3089.199219 977.855469 3088.101562 975.699219 3086.914062 973.585938 C 3085.730469 971.472656 3084.460938 969.410156 3083.109375 967.402344 C 3081.753906 965.390625 3080.324219 963.4375 3078.8125 961.542969 C 3077.300781 959.648438 3075.71875 957.820312 3074.058594 956.054688 C 3072.398438 954.289062 3070.671875 952.59375 3068.875 950.964844 C 3067.078125 949.339844 3065.222656 947.789062 3063.300781 946.3125 C 3061.378906 944.835938 3059.398438 943.441406 3057.367188 942.125 C 3055.332031 940.808594 3053.246094 939.578125 3051.113281 938.429688 C 3048.980469 937.28125 3046.800781 936.222656 3044.582031 935.253906 C 3042.363281 934.28125 3040.105469 933.402344 3037.816406 932.613281 C 2992.449219 915.738281 2944.210938 906.445312 2897.992188 891.621094 C 2849.828125 877.90625 2802.925781 860.757812 2757.277344 840.171875 C 2682.804688 803.824219 2678.191406 662.261719 2762.503906 617.441406 C 2767.875 614.410156 2773.332031 611.550781 2778.882812 608.859375 C 2784.429688 606.171875 2790.058594 603.65625 2795.761719 601.316406 C 2801.46875 598.976562 2807.238281 596.816406 2813.078125 594.835938 C 2818.917969 592.855469 2824.816406 591.0625 2830.765625 589.449219 C 2836.71875 587.835938 2842.714844 586.410156 2848.753906 585.171875 C 2854.792969 583.933594 2860.867188 582.882812 2866.972656 582.023438 C 2873.078125 581.164062 2879.207031 580.492188 2885.351562 580.015625 C 2891.5 579.535156 2897.65625 579.25 2903.824219 579.152344 C 2909.988281 579.058594 2916.152344 579.15625 2922.308594 579.445312 C 2928.46875 579.734375 2934.613281 580.214844 2940.742188 580.886719 C 2946.871094 581.558594 2952.976562 582.421875 2959.050781 583.472656 C 2965.125 584.523438 2971.164062 585.765625 2977.164062 587.191406 C 2983.160156 588.621094 2989.109375 590.234375 2995.007812 592.035156 C 3000.902344 593.832031 3006.742188 595.8125 3012.515625 597.976562 C 3018.289062 600.136719 3023.992188 602.476562 3029.621094 604.996094 C 3035.246094 607.515625 3040.792969 610.203125 3046.253906 613.066406 C 3100.707031 643.128906 3130.804688 703.835938 3121.855469 765.425781 L 3086.496094 765.425781 C 3086.496094 763.71875 3083.285156 762.214844 3083.285156 760.472656 C 3078.914062 647.742188 2984.148438 612.488281 2882.414062 622.394531 C 2851.667969 625.808594 2822.527344 635.101562 2795.195312 648.835938 C 2793.160156 649.765625 2791.160156 650.773438 2789.199219 651.859375 C 2787.238281 652.945312 2785.324219 654.101562 2783.453125 655.335938 C 2781.582031 656.570312 2779.761719 657.871094 2777.988281 659.246094 C 2776.21875 660.617188 2774.503906 662.058594 2772.84375 663.5625 C 2771.183594 665.070312 2769.585938 666.636719 2768.046875 668.265625 C 2766.507812 669.894531 2765.035156 671.582031 2763.628906 673.324219 C 2762.21875 675.066406 2760.878906 676.863281 2759.609375 678.707031 C 2758.339844 680.554688 2757.144531 682.445312 2756.019531 684.386719 C 2754.894531 686.324219 2753.847656 688.304688 2752.878906 690.320312 C 2751.90625 692.339844 2751.015625 694.394531 2750.203125 696.484375 C 2749.390625 698.570312 2748.660156 700.6875 2748.007812 702.832031 C 2747.359375 704.976562 2746.792969 707.144531 2746.3125 709.332031 C 2745.828125 711.519531 2745.433594 713.722656 2745.121094 715.941406 C 2744.808594 718.160156 2744.582031 720.390625 2744.441406 722.625 C 2744.300781 724.863281 2744.25 727.101562 2744.28125 729.339844 C 2744.3125 731.582031 2744.433594 733.816406 2744.636719 736.046875 C 2744.640625 738.28125 2744.730469 740.511719 2744.90625 742.738281 C 2745.082031 744.964844 2745.34375 747.179688 2745.691406 749.386719 C 2746.035156 751.59375 2746.464844 753.78125 2746.980469 755.953125 C 2747.496094 758.128906 2748.09375 760.277344 2748.773438 762.40625 C 2749.453125 764.53125 2750.214844 766.628906 2751.054688 768.699219 C 2751.894531 770.765625 2752.816406 772.800781 2753.8125 774.796875 C 2754.8125 776.796875 2755.882812 778.753906 2757.03125 780.667969 C 2758.179688 782.582031 2759.398438 784.453125 2760.691406 786.273438 C 2761.984375 788.09375 2763.34375 789.863281 2764.769531 791.582031 C 2766.199219 793.296875 2767.691406 794.957031 2769.246094 796.558594 C 2770.800781 798.164062 2772.417969 799.703125 2774.089844 801.179688 C 2775.765625 802.660156 2777.492188 804.070312 2779.277344 805.414062 C 2781.058594 806.761719 2782.890625 808.035156 2784.769531 809.238281 C 2786.648438 810.445312 2788.574219 811.574219 2790.542969 812.632812 C 2792.507812 813.6875 2794.515625 814.667969 2796.558594 815.570312 C 2798.601562 816.46875 2800.675781 817.292969 2802.78125 818.035156 C 2847.191406 834.332031 2894.335938 844.785156 2940.285156 857.558594 L 3051.308594 886.597656 C 3054.441406 887.625 3057.53125 888.769531 3060.578125 890.03125 C 3063.621094 891.292969 3066.617188 892.664062 3069.558594 894.152344 C 3072.5 895.636719 3075.382812 897.234375 3078.203125 898.9375 C 3081.027344 900.640625 3083.78125 902.449219 3086.464844 904.359375 C 3089.152344 906.273438 3091.761719 908.28125 3094.292969 910.390625 C 3096.828125 912.496094 3099.28125 914.699219 3101.648438 916.992188 C 3104.015625 919.285156 3106.292969 921.664062 3108.484375 924.128906 C 3110.671875 926.59375 3112.765625 929.136719 3114.761719 931.757812 C 3116.761719 934.378906 3118.65625 937.074219 3120.449219 939.839844 C 3122.242188 942.605469 3123.929688 945.433594 3125.511719 948.324219 C 3127.09375 951.21875 3128.5625 954.167969 3129.921875 957.171875 C 3131.28125 960.171875 3132.523438 963.222656 3133.652344 966.320312 C 3134.78125 969.417969 3135.789062 972.550781 3136.683594 975.726562 C 3137.574219 978.898438 3138.347656 982.101562 3138.996094 985.332031 C 3139.648438 988.5625 3140.175781 991.816406 3140.582031 995.085938 C 3140.988281 998.359375 3141.269531 1001.640625 3141.429688 1004.933594 C 3150.3125 1064.542969 3119.90625 1123.128906 3066.136719 1150.289062 C 2969.046875 1205.21875 2809.136719 1190.703125 2737.90625 1121.25 C 2701.457031 1084.597656 2681.128906 1034.824219 2681.539062 983.171875 Z M 3664.621094 765.460938 L 3625.949219 765.460938 C 3625.949219 760.234375 3623.898438 755.214844 3623.316406 751.214844 C 3623.28125 749.421875 3623.203125 747.628906 3623.089844 745.839844 C 3622.976562 744.046875 3622.820312 742.257812 3622.632812 740.472656 C 3622.441406 738.691406 3622.210938 736.910156 3621.945312 735.136719 C 3621.679688 733.359375 3621.375 731.589844 3621.03125 729.828125 C 3620.691406 728.066406 3620.3125 726.3125 3619.894531 724.570312 C 3619.476562 722.824219 3619.023438 721.085938 3618.535156 719.359375 C 3618.042969 717.632812 3617.515625 715.917969 3616.953125 714.214844 C 3616.386719 712.511719 3615.789062 710.820312 3615.152344 709.140625 C 3614.515625 707.460938 3613.847656 705.796875 3613.140625 704.148438 C 3612.433594 702.5 3611.691406 700.863281 3610.914062 699.246094 C 3610.140625 697.628906 3609.328125 696.027344 3608.484375 694.441406 C 3607.640625 692.859375 3606.761719 691.292969 3605.851562 689.746094 C 3604.941406 688.203125 3603.996094 686.675781 3603.019531 685.167969 C 3602.042969 683.664062 3601.035156 682.179688 3599.996094 680.714844 C 3598.957031 679.25 3597.886719 677.8125 3596.785156 676.394531 C 3595.6875 674.976562 3594.554688 673.582031 3593.394531 672.210938 C 3592.234375 670.84375 3591.046875 669.5 3589.828125 668.179688 C 3588.613281 666.863281 3587.367188 665.570312 3586.09375 664.304688 C 3584.824219 663.039062 3583.523438 661.800781 3582.199219 660.589844 C 3580.875 659.378906 3579.523438 658.195312 3578.148438 657.042969 C 3576.773438 655.890625 3575.375 654.765625 3573.949219 653.671875 C 3572.527344 652.582031 3571.082031 651.519531 3569.613281 650.484375 C 3568.144531 649.453125 3566.652344 648.453125 3565.140625 647.484375 C 3563.628906 646.515625 3562.097656 645.582031 3560.546875 644.679688 C 3558.996094 643.777344 3557.429688 642.90625 3555.839844 642.070312 C 3554.25 641.234375 3552.648438 640.429688 3551.023438 639.664062 C 3549.402344 638.894531 3547.765625 638.164062 3546.109375 637.464844 C 3544.457031 636.765625 3542.789062 636.105469 3541.109375 635.476562 C 3539.425781 634.851562 3537.730469 634.257812 3536.023438 633.703125 C 3534.316406 633.148438 3532.601562 632.632812 3530.871094 632.148438 C 3529.140625 631.667969 3527.402344 631.222656 3525.65625 630.816406 C 3523.90625 630.40625 3522.152344 630.039062 3520.386719 629.703125 C 3513.726562 627.792969 3506.996094 626.160156 3500.203125 624.800781 C 3493.40625 623.441406 3486.566406 622.359375 3479.683594 621.5625 C 3472.796875 620.761719 3465.894531 620.246094 3458.96875 620.011719 C 3452.042969 619.777344 3445.117188 619.828125 3438.195312 620.160156 C 3431.273438 620.496094 3424.375 621.109375 3417.503906 622.007812 C 3410.632812 622.90625 3403.808594 624.085938 3397.03125 625.542969 C 3390.257812 627 3383.554688 628.730469 3376.917969 630.738281 C 3370.285156 632.746094 3363.746094 635.019531 3357.296875 637.5625 C 3354.75 638.292969 3352.230469 639.121094 3349.75 640.054688 C 3347.265625 640.984375 3344.824219 642.015625 3342.421875 643.144531 C 3340.023438 644.273438 3337.671875 645.496094 3335.367188 646.8125 C 3333.066406 648.128906 3330.820312 649.535156 3328.628906 651.03125 C 3326.441406 652.53125 3324.316406 654.113281 3322.253906 655.78125 C 3320.191406 657.449219 3318.199219 659.199219 3316.277344 661.027344 C 3314.355469 662.855469 3312.507812 664.757812 3310.738281 666.730469 C 3308.972656 668.707031 3307.285156 670.753906 3305.679688 672.863281 C 3304.074219 674.976562 3302.554688 677.148438 3301.125 679.382812 C 3299.695312 681.617188 3298.355469 683.902344 3297.109375 686.246094 C 3295.863281 688.585938 3294.714844 690.972656 3293.660156 693.40625 C 3292.605469 695.839844 3291.648438 698.3125 3290.792969 700.824219 C 3289.933594 703.332031 3289.179688 705.875 3288.527344 708.445312 C 3287.875 711.015625 3287.328125 713.609375 3286.882812 716.222656 C 3286.441406 718.839844 3286.101562 721.46875 3285.871094 724.109375 C 3285.636719 726.753906 3285.511719 729.398438 3285.488281 732.050781 C 3285.398438 734.652344 3285.417969 737.253906 3285.550781 739.851562 C 3285.683594 742.453125 3285.925781 745.042969 3286.277344 747.621094 C 3286.632812 750.199219 3287.09375 752.757812 3287.664062 755.300781 C 3288.238281 757.839844 3288.917969 760.347656 3289.707031 762.828125 C 3290.492188 765.3125 3291.382812 767.753906 3292.378906 770.160156 C 3293.375 772.5625 3294.472656 774.921875 3295.671875 777.230469 C 3296.871094 779.542969 3298.164062 781.796875 3299.558594 784 C 3300.949219 786.199219 3302.429688 788.335938 3304.003906 790.410156 C 3305.578125 792.480469 3307.238281 794.484375 3308.984375 796.414062 C 3310.730469 798.34375 3312.554688 800.199219 3314.460938 801.972656 C 3316.363281 803.746094 3318.339844 805.4375 3320.390625 807.042969 C 3322.4375 808.648438 3324.554688 810.164062 3326.730469 811.585938 C 3328.910156 813.011719 3331.144531 814.339844 3333.4375 815.574219 C 3335.730469 816.808594 3338.074219 817.941406 3340.460938 818.972656 C 3342.851562 820.003906 3345.28125 820.933594 3347.75 821.757812 C 3350.21875 822.582031 3352.71875 823.300781 3355.25 823.910156 L 3532.003906 869.277344 C 3551.136719 873.867188 3569.925781 879.582031 3588.371094 886.425781 C 3644.738281 906.921875 3683 959.257812 3684.707031 1019.074219 C 3684.8125 1022.710938 3684.78125 1026.34375 3684.613281 1029.972656 C 3684.445312 1033.605469 3684.140625 1037.226562 3683.699219 1040.835938 C 3683.261719 1044.445312 3682.6875 1048.03125 3681.976562 1051.597656 C 3681.265625 1055.160156 3680.425781 1058.695312 3679.449219 1062.199219 C 3678.476562 1065.699219 3677.371094 1069.160156 3676.136719 1072.582031 C 3674.902344 1076 3673.539062 1079.367188 3672.050781 1082.6875 C 3670.5625 1086.003906 3668.953125 1089.257812 3667.21875 1092.457031 C 3665.488281 1095.652344 3663.636719 1098.777344 3661.667969 1101.835938 C 3659.703125 1104.894531 3657.621094 1107.871094 3655.429688 1110.773438 C 3653.238281 1113.671875 3650.941406 1116.488281 3648.539062 1119.21875 C 3646.136719 1121.945312 3643.636719 1124.578125 3641.035156 1127.121094 C 3638.433594 1129.660156 3635.742188 1132.101562 3632.957031 1134.4375 C 3630.175781 1136.777344 3627.304688 1139.007812 3624.355469 1141.128906 C 3621.402344 1143.253906 3618.375 1145.261719 3615.273438 1147.15625 C 3612.171875 1149.050781 3609.003906 1150.828125 3605.765625 1152.484375 C 3602.53125 1154.144531 3599.238281 1155.675781 3595.886719 1157.085938 C 3590.777344 1159.410156 3585.609375 1161.59375 3580.382812 1163.648438 C 3575.160156 1165.699219 3569.886719 1167.617188 3564.5625 1169.394531 C 3559.238281 1171.171875 3553.871094 1172.808594 3548.460938 1174.308594 C 3543.050781 1175.808594 3537.605469 1177.164062 3532.125 1178.378906 C 3526.644531 1179.59375 3521.136719 1180.667969 3515.601562 1181.59375 C 3510.066406 1182.523438 3504.507812 1183.308594 3498.933594 1183.945312 C 3493.355469 1184.585938 3487.765625 1185.078125 3482.164062 1185.425781 C 3476.5625 1185.777344 3470.953125 1185.976562 3465.339844 1186.035156 C 3459.726562 1186.089844 3454.117188 1186 3448.507812 1185.765625 C 3442.902344 1185.53125 3437.300781 1185.148438 3431.714844 1184.621094 C 3426.125 1184.09375 3420.554688 1183.421875 3415 1182.605469 C 3409.449219 1181.789062 3403.917969 1180.828125 3398.414062 1179.722656 C 3392.914062 1178.617188 3387.441406 1177.371094 3382.003906 1175.980469 C 3376.566406 1174.59375 3371.167969 1173.0625 3365.808594 1171.390625 C 3360.449219 1169.722656 3355.136719 1167.914062 3349.871094 1165.964844 C 3344.605469 1164.019531 3339.394531 1161.9375 3334.238281 1159.71875 C 3330.015625 1157.894531 3325.867188 1155.917969 3321.792969 1153.78125 C 3317.71875 1151.644531 3313.734375 1149.355469 3309.835938 1146.914062 C 3305.933594 1144.472656 3302.132812 1141.886719 3298.429688 1139.160156 C 3294.730469 1136.429688 3291.136719 1133.5625 3287.648438 1130.5625 C 3284.164062 1127.558594 3280.800781 1124.425781 3277.554688 1121.167969 C 3274.308594 1117.910156 3271.1875 1114.53125 3268.199219 1111.035156 C 3265.210938 1107.539062 3262.359375 1103.933594 3259.640625 1100.222656 C 3256.925781 1096.507812 3254.355469 1092.699219 3251.929688 1088.789062 C 3249.503906 1084.878906 3247.230469 1080.886719 3245.109375 1076.804688 C 3242.988281 1072.722656 3241.027344 1068.566406 3239.21875 1064.335938 C 3237.414062 1060.105469 3235.773438 1055.8125 3234.292969 1051.457031 C 3232.816406 1047.097656 3231.503906 1042.695312 3230.359375 1038.238281 C 3229.21875 1033.78125 3228.246094 1029.289062 3227.445312 1024.761719 C 3226.640625 1020.230469 3226.011719 1015.675781 3225.558594 1011.101562 C 3225.101562 1006.523438 3224.820312 1001.933594 3224.714844 997.335938 C 3224.609375 992.738281 3224.679688 988.140625 3224.921875 983.546875 L 3262.703125 983.546875 C 3276.917969 1052.039062 3323.957031 1109.089844 3388.488281 1136.078125 C 3453.019531 1163.066406 3526.707031 1156.4375 3585.398438 1118.449219 C 3587.585938 1117.3125 3589.730469 1116.097656 3591.832031 1114.808594 C 3593.929688 1113.519531 3595.984375 1112.15625 3597.988281 1110.71875 C 3599.992188 1109.285156 3601.941406 1107.777344 3603.835938 1106.203125 C 3605.734375 1104.628906 3607.570312 1102.988281 3609.351562 1101.28125 C 3611.132812 1099.574219 3612.847656 1097.808594 3614.5 1095.980469 C 3616.15625 1094.152344 3617.742188 1092.265625 3619.261719 1090.328125 C 3620.78125 1088.386719 3622.230469 1086.390625 3623.609375 1084.347656 C 3624.984375 1082.304688 3626.289062 1080.214844 3627.515625 1078.074219 C 3628.746094 1075.9375 3629.898438 1073.761719 3630.96875 1071.542969 C 3632.042969 1069.324219 3633.039062 1067.066406 3633.949219 1064.777344 C 3634.863281 1062.488281 3635.695312 1060.167969 3636.441406 1057.820312 C 3637.191406 1055.472656 3637.855469 1053.097656 3638.433594 1050.703125 C 3639.011719 1048.304688 3639.503906 1045.890625 3639.910156 1043.460938 C 3640.320312 1041.027344 3640.640625 1038.585938 3640.871094 1036.132812 C 3641.105469 1033.679688 3641.25 1031.21875 3641.308594 1028.753906 C 3641.367188 1026.289062 3641.335938 1023.828125 3641.21875 1021.363281 C 3641.328125 1018.941406 3641.339844 1016.523438 3641.25 1014.101562 C 3641.164062 1011.679688 3640.980469 1009.265625 3640.695312 1006.855469 C 3640.414062 1004.449219 3640.035156 1002.058594 3639.558594 999.683594 C 3639.082031 997.304688 3638.511719 994.953125 3637.84375 992.625 C 3637.175781 990.292969 3636.417969 987.996094 3635.566406 985.726562 C 3634.710938 983.457031 3633.769531 981.226562 3632.734375 979.035156 C 3631.703125 976.84375 3630.582031 974.695312 3629.375 972.59375 C 3628.167969 970.492188 3626.878906 968.445312 3625.507812 966.445312 C 3624.132812 964.449219 3622.683594 962.511719 3621.152344 960.632812 C 3619.625 958.75 3618.019531 956.9375 3616.34375 955.1875 C 3614.667969 953.4375 3612.921875 951.757812 3611.109375 950.148438 C 3609.300781 948.539062 3607.425781 947.007812 3605.488281 945.550781 C 3603.550781 944.09375 3601.558594 942.714844 3599.511719 941.421875 C 3597.464844 940.125 3595.367188 938.914062 3593.222656 937.785156 C 3591.074219 936.660156 3588.886719 935.621094 3586.660156 934.671875 C 3584.429688 933.722656 3582.164062 932.867188 3579.863281 932.101562 C 3534.496094 915.226562 3486.261719 906.242188 3440.039062 891.105469 C 3391.609375 877.605469 3344.421875 860.652344 3298.472656 840.242188 C 3225.777344 804.472656 3219.96875 664.070312 3302.84375 619.285156 C 3308.28125 616.128906 3313.808594 613.152344 3319.4375 610.351562 C 3325.0625 607.550781 3330.773438 604.933594 3336.570312 602.5 C 3342.363281 600.070312 3348.230469 597.824219 3354.171875 595.769531 C 3360.113281 593.714844 3366.109375 591.855469 3372.171875 590.1875 C 3378.230469 588.519531 3384.335938 587.046875 3390.492188 585.773438 C 3396.644531 584.496094 3402.832031 583.421875 3409.058594 582.546875 C 3415.28125 581.667969 3421.527344 580.996094 3427.792969 580.519531 C 3434.058594 580.046875 3440.335938 579.773438 3446.621094 579.703125 C 3452.90625 579.632812 3459.183594 579.765625 3465.460938 580.101562 C 3471.738281 580.433594 3477.996094 580.972656 3484.238281 581.707031 C 3490.476562 582.445312 3496.691406 583.382812 3502.871094 584.519531 C 3509.050781 585.660156 3515.191406 586.992188 3521.285156 588.527344 C 3527.378906 590.058594 3533.417969 591.785156 3539.402344 593.707031 C 3545.386719 595.628906 3551.304688 597.742188 3557.152344 600.046875 C 3563 602.347656 3568.765625 604.835938 3574.453125 607.511719 C 3580.140625 610.183594 3585.738281 613.039062 3591.242188 616.074219 C 3594.382812 617.949219 3597.457031 619.9375 3600.457031 622.035156 C 3603.457031 624.132812 3606.378906 626.335938 3609.21875 628.644531 C 3612.058594 630.957031 3614.8125 633.363281 3617.480469 635.871094 C 3620.148438 638.378906 3622.71875 640.980469 3625.199219 643.675781 C 3627.675781 646.367188 3630.054688 649.148438 3632.335938 652.015625 C 3634.613281 654.878906 3636.785156 657.824219 3638.851562 660.847656 C 3640.914062 663.871094 3642.871094 666.964844 3644.710938 670.128906 C 3646.554688 673.292969 3648.277344 676.515625 3649.886719 679.804688 C 3651.496094 683.09375 3652.984375 686.4375 3654.351562 689.832031 C 3655.71875 693.230469 3656.960938 696.667969 3658.082031 700.15625 C 3659.199219 703.640625 3660.191406 707.164062 3661.054688 710.71875 C 3661.921875 714.277344 3662.65625 717.863281 3663.261719 721.472656 C 3663.867188 725.082031 3664.339844 728.710938 3664.683594 732.355469 C 3665.027344 736 3665.238281 739.652344 3665.320312 743.3125 C 3665.398438 746.972656 3665.34375 750.632812 3665.160156 754.289062 C 3664.976562 757.945312 3664.660156 761.589844 3664.210938 765.222656 Z M 1132.191406 1169.589844 C 1130.308594 1170.300781 1128.394531 1170.925781 1126.457031 1171.464844 C 1124.515625 1172.003906 1122.554688 1172.453125 1120.574219 1172.816406 C 1118.59375 1173.175781 1116.601562 1173.449219 1114.597656 1173.628906 C 1112.589844 1173.808594 1110.582031 1173.898438 1108.570312 1173.894531 C 1106.554688 1173.894531 1104.546875 1173.800781 1102.542969 1173.617188 C 1100.535156 1173.433594 1098.542969 1173.160156 1096.5625 1172.792969 C 1094.582031 1172.429688 1092.625 1171.976562 1090.683594 1171.433594 C 1088.746094 1170.890625 1086.835938 1170.261719 1084.953125 1169.546875 C 1083.074219 1168.832031 1081.226562 1168.03125 1079.417969 1167.148438 C 1077.609375 1166.265625 1075.84375 1165.304688 1074.121094 1164.261719 C 1072.398438 1163.21875 1070.726562 1162.097656 1069.105469 1160.902344 C 1067.484375 1159.710938 1065.921875 1158.445312 1064.414062 1157.109375 C 1062.910156 1155.773438 1061.46875 1154.371094 1060.089844 1152.902344 C 1058.710938 1151.4375 1057.398438 1149.910156 1056.160156 1148.324219 C 1054.917969 1146.738281 1053.753906 1145.101562 1052.660156 1143.40625 C 1051.570312 1141.714844 1050.554688 1139.980469 1049.621094 1138.195312 L 899.308594 930.324219 L 877.511719 901.285156 L 703.082031 1138.503906 C 702.203125 1140.210938 701.25 1141.875 700.21875 1143.496094 C 699.1875 1145.117188 698.089844 1146.6875 696.917969 1148.207031 C 695.746094 1149.730469 694.507812 1151.195312 693.203125 1152.605469 C 691.902344 1154.015625 690.535156 1155.363281 689.113281 1156.652344 C 687.6875 1157.9375 686.207031 1159.15625 684.671875 1160.3125 C 683.136719 1161.464844 681.550781 1162.546875 679.917969 1163.558594 C 678.285156 1164.570312 676.613281 1165.503906 674.894531 1166.363281 C 673.175781 1167.222656 671.425781 1168.003906 669.636719 1168.703125 C 667.851562 1169.40625 666.035156 1170.027344 664.191406 1170.566406 C 662.347656 1171.101562 660.484375 1171.554688 658.601562 1171.925781 C 656.714844 1172.296875 654.820312 1172.582031 652.910156 1172.777344 C 651 1172.976562 649.082031 1173.089844 647.164062 1173.117188 C 645.242188 1173.140625 643.324219 1173.082031 641.410156 1172.933594 C 639.496094 1172.789062 637.59375 1172.554688 635.699219 1172.238281 C 633.804688 1171.917969 631.929688 1171.515625 630.074219 1171.027344 C 628.214844 1170.539062 626.382812 1169.96875 624.578125 1169.316406 L 849.296875 867.84375 L 640.222656 595.441406 C 671.242188 584.234375 705.816406 596.398438 723.066406 624.476562 L 878.847656 834.910156 L 1035.546875 625.296875 C 1036.433594 623.621094 1037.394531 621.988281 1038.429688 620.398438 C 1039.460938 618.808594 1040.566406 617.265625 1041.742188 615.777344 C 1042.917969 614.289062 1044.15625 612.855469 1045.460938 611.480469 C 1046.769531 610.101562 1048.132812 608.789062 1049.558594 607.535156 C 1050.984375 606.285156 1052.460938 605.097656 1053.996094 603.980469 C 1055.527344 602.863281 1057.109375 601.820312 1058.734375 600.84375 C 1060.363281 599.871094 1062.03125 598.972656 1063.742188 598.152344 C 1065.453125 597.332031 1067.195312 596.585938 1068.972656 595.925781 C 1070.75 595.261719 1072.554688 594.679688 1074.382812 594.183594 C 1076.214844 593.683594 1078.0625 593.269531 1079.929688 592.9375 C 1081.800781 592.605469 1083.679688 592.363281 1085.570312 592.203125 C 1087.457031 592.042969 1089.351562 591.96875 1091.25 591.984375 C 1093.144531 591.996094 1095.039062 592.09375 1096.925781 592.28125 C 1098.8125 592.464844 1100.691406 592.734375 1102.554688 593.089844 C 1104.417969 593.445312 1106.261719 593.886719 1108.082031 594.410156 C 1109.90625 594.933594 1111.703125 595.539062 1113.46875 596.226562 L 1032.4375 703.867188 L 922.539062 846.902344 C 921.777344 847.582031 921.054688 848.296875 920.371094 849.054688 C 919.6875 849.808594 919.042969 850.597656 918.441406 851.421875 C 917.839844 852.242188 917.28125 853.097656 916.769531 853.976562 C 916.257812 854.859375 915.792969 855.765625 915.378906 856.695312 C 914.960938 857.625 914.59375 858.574219 914.277344 859.546875 C 913.960938 860.515625 913.695312 861.496094 913.484375 862.496094 C 913.269531 863.492188 913.109375 864.496094 913.003906 865.511719 C 912.894531 866.523438 912.84375 867.542969 912.84375 868.5625 C 912.84375 869.578125 912.894531 870.597656 913.003906 871.609375 C 913.109375 872.625 913.269531 873.628906 913.484375 874.625 C 913.695312 875.625 913.960938 876.605469 914.277344 877.574219 C 914.59375 878.546875 914.960938 879.496094 915.378906 880.425781 C 915.792969 881.355469 916.257812 882.261719 916.769531 883.144531 C 917.28125 884.023438 917.839844 884.878906 918.441406 885.699219 C 919.042969 886.523438 919.6875 887.3125 920.371094 888.066406 C 921.054688 888.824219 921.777344 889.539062 922.539062 890.21875 L 1131.847656 1169.589844 Z M 2086.335938 592.535156 L 2086.335938 633.53125 C 2082.671875 633.289062 2079.007812 633.144531 2075.335938 633.097656 C 2071.664062 633.046875 2067.996094 633.09375 2064.328125 633.238281 C 2060.660156 633.382812 2057 633.621094 2053.34375 633.953125 C 2049.6875 634.289062 2046.042969 634.71875 2042.410156 635.242188 C 2038.777344 635.769531 2035.160156 636.386719 2031.558594 637.101562 C 2027.957031 637.816406 2024.378906 638.621094 2020.820312 639.523438 C 2017.261719 640.421875 2013.730469 641.417969 2010.222656 642.5 C 2006.714844 643.585938 2003.238281 644.761719 1999.792969 646.03125 C 1996.347656 647.296875 1992.9375 648.652344 1989.5625 650.097656 C 1986.191406 651.542969 1982.855469 653.074219 1979.5625 654.695312 C 1976.265625 656.3125 1973.015625 658.019531 1969.8125 659.808594 C 1966.605469 661.597656 1963.449219 663.46875 1960.34375 665.421875 C 1957.234375 667.375 1954.179688 669.410156 1951.179688 671.523438 C 1948.175781 673.636719 1945.234375 675.828125 1942.347656 678.09375 C 1939.460938 680.359375 1936.632812 682.703125 1933.871094 685.117188 C 1931.105469 687.53125 1928.40625 690.019531 1925.769531 692.574219 C 1923.136719 695.128906 1920.570312 697.753906 1918.070312 700.441406 C 1915.574219 703.132812 1913.148438 705.886719 1910.796875 708.703125 C 1908.441406 711.519531 1906.164062 714.398438 1903.960938 717.332031 C 1901.757812 720.269531 1899.628906 723.257812 1897.582031 726.304688 C 1895.535156 729.351562 1893.570312 732.453125 1891.683594 735.601562 C 1889.800781 738.75 1887.996094 741.949219 1886.277344 745.191406 C 1884.5625 748.433594 1882.929688 751.722656 1881.382812 755.050781 C 1879.835938 758.378906 1878.375 761.746094 1877.007812 765.152344 C 1875.636719 768.558594 1874.355469 771.996094 1873.164062 775.46875 C 1871.972656 778.941406 1870.875 782.441406 1869.863281 785.972656 C 1868.855469 789.5 1867.941406 793.054688 1867.121094 796.632812 C 1866.296875 800.210938 1865.566406 803.804688 1864.933594 807.421875 C 1864.300781 811.035156 1863.757812 814.667969 1863.316406 818.308594 C 1862.871094 821.953125 1862.519531 825.605469 1862.265625 829.269531 C 1862.011719 832.929688 1861.855469 836.597656 1861.792969 840.265625 C 1861.730469 843.9375 1861.761719 847.605469 1861.890625 851.273438 C 1861.890625 947.019531 1861.890625 1042.761719 1861.890625 1138.503906 L 1861.890625 1171.058594 L 1820.316406 1171.058594 L 1820.316406 595.097656 L 1861.3125 595.097656 L 1861.3125 713.125 C 1911.597656 627.039062 1989.214844 595.097656 2086.609375 592.777344 Z M 86.59375 864.085938 L 104.90625 773.660156 C 155.191406 594.859375 360.164062 520.457031 501.183594 631.207031 C 583.753906 696.046875 604.355469 787.90625 600.324219 891.414062 L 135.140625 891.414062 C 127.625 1076.296875 261.027344 1187.933594 431.664062 1130.953125 C 487.894531 1110.457031 530.222656 1063.722656 544.160156 1005.648438 C 553.179688 976.613281 568.074219 971.625 595.335938 980.027344 C 594.769531 984.4375 594.078125 988.824219 593.265625 993.191406 C 592.453125 997.558594 591.515625 1001.898438 590.457031 1006.214844 C 589.398438 1010.53125 588.21875 1014.8125 586.917969 1019.058594 C 585.617188 1023.308594 584.195312 1027.515625 582.660156 1031.683594 C 581.121094 1035.851562 579.464844 1039.972656 577.695312 1044.050781 C 575.921875 1048.125 574.039062 1052.144531 572.039062 1056.113281 C 570.042969 1060.082031 567.933594 1063.992188 565.714844 1067.839844 C 563.496094 1071.691406 561.171875 1075.472656 558.738281 1079.191406 C 556.304688 1082.910156 553.769531 1086.554688 551.132812 1090.128906 C 548.492188 1093.707031 545.753906 1097.203125 542.917969 1100.625 C 540.082031 1104.042969 537.152344 1107.378906 534.128906 1110.636719 C 531.105469 1113.890625 527.992188 1117.058594 524.789062 1120.136719 C 521.585938 1123.214844 518.296875 1126.203125 514.925781 1129.09375 C 511.554688 1131.988281 508.101562 1134.785156 504.574219 1137.484375 C 501.042969 1140.179688 497.441406 1142.777344 493.765625 1145.273438 C 490.085938 1147.769531 486.34375 1150.15625 482.53125 1152.441406 C 479.398438 1154.15625 476.230469 1155.808594 473.03125 1157.398438 C 469.828125 1158.988281 466.597656 1160.515625 463.339844 1161.980469 C 460.078125 1163.441406 456.792969 1164.84375 453.476562 1166.175781 C 450.160156 1167.511719 446.820312 1168.78125 443.457031 1169.984375 C 440.09375 1171.1875 436.703125 1172.324219 433.296875 1173.398438 C 429.886719 1174.46875 426.457031 1175.472656 423.007812 1176.40625 C 419.558594 1177.34375 416.09375 1178.210938 412.609375 1179.011719 C 409.128906 1179.8125 405.632812 1180.542969 402.121094 1181.207031 C 398.609375 1181.871094 395.085938 1182.464844 391.550781 1182.988281 C 388.015625 1183.515625 384.472656 1183.96875 380.917969 1184.355469 C 377.367188 1184.742188 373.808594 1185.058594 370.242188 1185.304688 C 366.675781 1185.550781 363.109375 1185.726562 359.535156 1185.835938 C 355.964844 1185.941406 352.390625 1185.976562 348.816406 1185.941406 C 345.246094 1185.910156 341.671875 1185.804688 338.105469 1185.632812 C 334.535156 1185.457031 330.96875 1185.214844 327.410156 1184.902344 C 323.851562 1184.585938 320.296875 1184.203125 316.753906 1183.75 C 313.207031 1183.296875 309.675781 1182.773438 306.148438 1182.183594 C 302.625 1181.589844 299.113281 1180.929688 295.617188 1180.203125 C 292.117188 1179.472656 288.632812 1178.675781 285.167969 1177.808594 C 281.699219 1176.941406 278.25 1176.007812 274.820312 1175.007812 C 271.390625 1174.007812 267.980469 1172.9375 264.59375 1171.804688 C 261.203125 1170.667969 257.839844 1169.46875 254.496094 1168.199219 C 251.15625 1166.933594 247.839844 1165.601562 244.550781 1164.203125 C 241.261719 1162.808594 238.003906 1161.34375 234.769531 1159.820312 C 231.539062 1158.296875 228.335938 1156.707031 225.167969 1155.058594 C 222 1153.40625 218.863281 1151.695312 215.761719 1149.921875 C 212.65625 1148.148438 209.589844 1146.3125 206.5625 1144.417969 C 203.53125 1142.527344 200.539062 1140.574219 197.585938 1138.5625 C 194.628906 1136.550781 191.71875 1134.480469 188.84375 1132.355469 C 185.972656 1130.230469 183.140625 1128.050781 180.355469 1125.8125 C 177.566406 1123.578125 174.824219 1121.285156 172.128906 1118.941406 C 169.429688 1116.597656 166.78125 1114.203125 164.175781 1111.753906 C 122.636719 1065.054688 97.5625 1006.027344 92.675781 943.679688 C 92.675781 933.433594 89.257812 923.867188 86.867188 914.644531 C 86.640625 897.402344 86.527344 880.550781 86.527344 864.085938 Z M 135.71875 851.582031 L 556.390625 851.582031 C 553.761719 717.566406 469.175781 622.496094 356.371094 621.609375 C 230.792969 619.898438 140.945312 712.886719 135.414062 851 Z M 135.71875 851.582031 "/>
</g>
</g>
</svg>
