<?xml version="1.0" encoding="UTF-8"?>
<svg xmlns="http://www.w3.org/2000/svg" xmlns:xlink="http://www.w3.org/1999/xlink" width="1190.25pt" height="1683.749945pt" viewBox="0 0 1190.25 1683.749945" version="1.2">
<defs>
<clipPath id="clip1">
  <path d="M 141 0.40625 L 1076 0.40625 L 1076 1436 L 141 1436 Z M 141 0.40625 "/>
</clipPath>
<clipPath id="clip2">
  <path d="M 330 124 L 928 124 L 928 1683.09375 L 330 1683.09375 Z M 330 124 "/>
</clipPath>
</defs>
<g id="surface1">
<g clip-path="url(#clip1)" clip-rule="nonzero">
<path style=" stroke:none;fill-rule:nonzero;fill:rgb(50.19989%,79.998779%,15.689087%);fill-opacity:1;" d="M 1050.164062 777.308594 C 1163.890625 1153.742188 852.355469 1435.371094 852.355469 1435.371094 C 852.355469 1435.371094 329.625 1395.171875 193.492188 957.347656 C -0.0820312 334.707031 406.226562 0.558594 406.226562 0.558594 C 406.226562 0.558594 387.726562 143.511719 537.925781 256.011719 C 717.617188 390.597656 948.960938 442.355469 1050.164062 777.308594 "/>
</g>
<g clip-path="url(#clip2)" clip-rule="nonzero">
<path style=" stroke:none;fill-rule:nonzero;fill:rgb(42.349243%,67.83905%,12.939453%);fill-opacity:1;" d="M 828.765625 1683.152344 C 828.765625 1683.152344 901.410156 1419.875 724.375 1000.695312 C 609.472656 728.632812 480.851562 702.773438 374.757812 477.113281 C 284.546875 285.1875 360.378906 124.886719 360.378906 124.886719 C 360.378906 124.886719 307.628906 265.996094 391.554688 450.320312 C 463.488281 608.257812 661.621094 671.75 780.609375 904.203125 C 939.4375 1214.472656 927.070312 1652.605469 927.070312 1652.605469 L 828.765625 1683.152344 "/>
</g>
</g>
</svg>
