<?xml version="1.0" encoding="UTF-8"?>
<svg xmlns="http://www.w3.org/2000/svg" xmlns:xlink="http://www.w3.org/1999/xlink" width="1190.25pt" height="1683.749945pt" viewBox="0 0 1190.25 1683.749945" version="1.2">
<defs>
<clipPath id="clip1">
  <path d="M 0 304 L 1189.5 304 L 1189.5 1346 L 0 1346 Z M 0 304 "/>
</clipPath>
</defs>
<g id="surface1">
<path style=" stroke:none;fill-rule:nonzero;fill:rgb(32.548523%,75.689697%,87.059021%);fill-opacity:1;" d="M 701.28125 824.601562 C 701.28125 826.34375 701.238281 828.082031 701.152344 829.820312 C 701.070312 831.5625 700.941406 833.296875 700.769531 835.03125 C 700.597656 836.765625 700.386719 838.492188 700.128906 840.214844 C 699.875 841.9375 699.578125 843.652344 699.238281 845.359375 C 698.898438 847.070312 698.515625 848.769531 698.09375 850.457031 C 697.667969 852.148438 697.203125 853.824219 696.699219 855.492188 C 696.195312 857.15625 695.648438 858.8125 695.0625 860.449219 C 694.472656 862.089844 693.847656 863.714844 693.179688 865.324219 C 692.515625 866.933594 691.808594 868.523438 691.0625 870.097656 C 690.320312 871.671875 689.535156 873.226562 688.714844 874.765625 C 687.894531 876.300781 687.035156 877.816406 686.140625 879.308594 C 685.246094 880.804688 684.3125 882.273438 683.34375 883.722656 C 682.378906 885.167969 681.375 886.59375 680.335938 887.992188 C 679.300781 889.390625 678.230469 890.761719 677.125 892.109375 C 676.019531 893.457031 674.882812 894.773438 673.710938 896.066406 C 672.542969 897.355469 671.339844 898.617188 670.109375 899.847656 C 668.878906 901.078125 667.617188 902.28125 666.328125 903.449219 C 665.035156 904.617188 663.71875 905.753906 662.371094 906.859375 C 661.023438 907.964844 659.652344 909.035156 658.253906 910.074219 C 656.855469 911.113281 655.429688 912.113281 653.980469 913.082031 C 652.535156 914.050781 651.0625 914.980469 649.570312 915.875 C 648.074219 916.769531 646.558594 917.628906 645.023438 918.449219 C 643.488281 919.269531 641.933594 920.054688 640.355469 920.796875 C 638.78125 921.542969 637.191406 922.25 635.582031 922.914062 C 633.972656 923.582031 632.347656 924.207031 630.707031 924.796875 C 629.066406 925.382812 627.414062 925.929688 625.746094 926.433594 C 624.082031 926.9375 622.402344 927.402344 620.714844 927.828125 C 619.023438 928.25 617.324219 928.632812 615.617188 928.972656 C 613.90625 929.3125 612.191406 929.609375 610.46875 929.863281 C 608.746094 930.121094 607.019531 930.332031 605.285156 930.503906 C 603.550781 930.675781 601.816406 930.800781 600.074219 930.886719 C 598.335938 930.972656 596.59375 931.015625 594.851562 931.015625 C 593.113281 931.015625 591.371094 930.972656 589.632812 930.886719 C 587.890625 930.800781 586.15625 930.675781 584.421875 930.503906 C 582.6875 930.332031 580.960938 930.121094 579.238281 929.863281 C 577.515625 929.609375 575.796875 929.3125 574.089844 928.972656 C 572.382812 928.632812 570.683594 928.25 568.992188 927.828125 C 567.304688 927.402344 565.625 926.9375 563.957031 926.433594 C 562.292969 925.929688 560.636719 925.382812 559 924.796875 C 557.359375 924.207031 555.734375 923.582031 554.125 922.914062 C 552.515625 922.25 550.921875 921.542969 549.347656 920.800781 C 547.773438 920.054688 546.21875 919.269531 544.683594 918.449219 C 543.148438 917.628906 541.632812 916.769531 540.136719 915.875 C 538.644531 914.980469 537.171875 914.050781 535.722656 913.082031 C 534.277344 912.113281 532.851562 911.113281 531.453125 910.074219 C 530.054688 909.035156 528.679688 907.964844 527.335938 906.859375 C 525.988281 905.753906 524.671875 904.617188 523.378906 903.449219 C 522.089844 902.28125 520.828125 901.078125 519.597656 899.847656 C 518.363281 898.617188 517.164062 897.355469 515.996094 896.066406 C 514.824219 894.773438 513.6875 893.457031 512.582031 892.109375 C 511.476562 890.761719 510.40625 889.390625 509.367188 887.992188 C 508.332031 886.59375 507.328125 885.167969 506.359375 883.722656 C 505.394531 882.273438 504.460938 880.804688 503.566406 879.308594 C 502.671875 877.816406 501.8125 876.300781 500.992188 874.765625 C 500.167969 873.230469 499.386719 871.671875 498.640625 870.097656 C 497.898438 868.523438 497.191406 866.933594 496.523438 865.324219 C 495.859375 863.714844 495.230469 862.089844 494.644531 860.449219 C 494.058594 858.8125 493.511719 857.15625 493.007812 855.492188 C 492.5 853.824219 492.035156 852.148438 491.613281 850.457031 C 491.191406 848.769531 490.808594 847.070312 490.46875 845.359375 C 490.128906 843.652344 489.832031 841.9375 489.574219 840.214844 C 489.320312 838.492188 489.105469 836.765625 488.9375 835.03125 C 488.765625 833.296875 488.636719 831.5625 488.550781 829.820312 C 488.464844 828.082031 488.425781 826.34375 488.425781 824.601562 C 488.425781 822.859375 488.464844 821.117188 488.550781 819.378906 C 488.636719 817.640625 488.765625 815.902344 488.9375 814.171875 C 489.105469 812.4375 489.320312 810.710938 489.574219 808.984375 C 489.832031 807.261719 490.128906 805.546875 490.46875 803.839844 C 490.808594 802.132812 491.191406 800.433594 491.613281 798.742188 C 492.035156 797.054688 492.5 795.375 493.007812 793.710938 C 493.511719 792.042969 494.058594 790.390625 494.644531 788.75 C 495.230469 787.109375 495.859375 785.484375 496.523438 783.878906 C 497.191406 782.269531 497.898438 780.675781 498.640625 779.101562 C 499.386719 777.527344 500.171875 775.972656 500.992188 774.4375 C 501.8125 772.902344 502.671875 771.386719 503.566406 769.890625 C 504.460938 768.398438 505.394531 766.925781 506.359375 765.480469 C 507.328125 764.03125 508.332031 762.609375 509.367188 761.210938 C 510.40625 759.808594 511.476562 758.4375 512.582031 757.089844 C 513.6875 755.746094 514.824219 754.425781 515.996094 753.136719 C 517.164062 751.847656 518.363281 750.585938 519.597656 749.355469 C 520.828125 748.121094 522.089844 746.921875 523.378906 745.753906 C 524.671875 744.582031 525.988281 743.445312 527.335938 742.339844 C 528.679688 741.234375 530.054688 740.164062 531.453125 739.128906 C 532.851562 738.089844 534.277344 737.085938 535.722656 736.121094 C 537.171875 735.152344 538.644531 734.21875 540.136719 733.324219 C 541.632812 732.429688 543.148438 731.570312 544.683594 730.75 C 546.21875 729.929688 547.773438 729.148438 549.347656 728.402344 C 550.921875 727.65625 552.515625 726.953125 554.125 726.285156 C 555.734375 725.621094 557.359375 724.992188 559 724.40625 C 560.636719 723.820312 562.292969 723.273438 563.957031 722.769531 C 565.625 722.261719 567.304688 721.796875 568.992188 721.375 C 570.683594 720.953125 572.382812 720.570312 574.089844 720.230469 C 575.796875 719.890625 577.515625 719.59375 579.238281 719.335938 C 580.960938 719.082031 582.6875 718.867188 584.421875 718.699219 C 586.15625 718.527344 587.890625 718.398438 589.632812 718.3125 C 591.371094 718.226562 593.113281 718.183594 594.851562 718.183594 C 596.59375 718.183594 598.335938 718.226562 600.074219 718.3125 C 601.816406 718.398438 603.550781 718.527344 605.285156 718.699219 C 607.019531 718.867188 608.746094 719.082031 610.46875 719.335938 C 612.191406 719.59375 613.90625 719.890625 615.617188 720.230469 C 617.324219 720.570312 619.023438 720.953125 620.714844 721.375 C 622.402344 721.796875 624.082031 722.261719 625.746094 722.769531 C 627.414062 723.273438 629.066406 723.820312 630.707031 724.40625 C 632.347656 724.992188 633.972656 725.621094 635.582031 726.285156 C 637.191406 726.953125 638.78125 727.65625 640.355469 728.402344 C 641.933594 729.148438 643.488281 729.929688 645.023438 730.75 C 646.558594 731.570312 648.074219 732.429688 649.570312 733.324219 C 651.0625 734.21875 652.535156 735.152344 653.980469 736.121094 C 655.429688 737.085938 656.855469 738.089844 658.253906 739.128906 C 659.652344 740.164062 661.023438 741.234375 662.371094 742.339844 C 663.71875 743.445312 665.035156 744.582031 666.328125 745.753906 C 667.617188 746.921875 668.878906 748.121094 670.109375 749.355469 C 671.339844 750.585938 672.542969 751.847656 673.710938 753.136719 C 674.882812 754.425781 676.019531 755.746094 677.125 757.089844 C 678.230469 758.4375 679.300781 759.808594 680.335938 761.210938 C 681.375 762.609375 682.378906 764.03125 683.34375 765.480469 C 684.3125 766.925781 685.246094 768.398438 686.140625 769.890625 C 687.035156 771.386719 687.894531 772.902344 688.714844 774.4375 C 689.535156 775.972656 690.320312 777.527344 691.0625 779.101562 C 691.808594 780.675781 692.515625 782.269531 693.179688 783.878906 C 693.847656 785.484375 694.472656 787.109375 695.0625 788.75 C 695.648438 790.390625 696.195312 792.042969 696.699219 793.710938 C 697.203125 795.375 697.667969 797.054688 698.09375 798.742188 C 698.515625 800.433594 698.898438 802.132812 699.238281 803.839844 C 699.578125 805.546875 699.875 807.261719 700.128906 808.988281 C 700.386719 810.710938 700.597656 812.4375 700.769531 814.171875 C 700.941406 815.902344 701.070312 817.640625 701.152344 819.378906 C 701.238281 821.117188 701.28125 822.859375 701.28125 824.601562 Z M 701.28125 824.601562 "/>
<g clip-path="url(#clip1)" clip-rule="nonzero">
<path style=" stroke:none;fill-rule:nonzero;fill:rgb(32.548523%,75.689697%,87.059021%);fill-opacity:1;" d="M 223.765625 1013.046875 C 234.222656 1016.515625 244.683594 1020.035156 255.390625 1023.058594 C 251.921875 1036.984375 248.894531 1050.714844 246.070312 1064.890625 C 221.683594 1193.855469 240.71875 1296.058594 301.589844 1331.152344 C 364.347656 1367.382812 469.835938 1330.210938 572.546875 1240.300781 C 580.675781 1233.113281 588.804688 1225.675781 596.933594 1217.746094 C 607.148438 1227.757812 617.855469 1237.277344 628.511719 1246.542969 C 727.953125 1332.042969 826.25 1366.640625 886.925781 1331.597656 C 949.683594 1295.363281 970.105469 1185.480469 943.636719 1051.65625 C 941.554688 1041.445312 939.222656 1030.988281 936.644531 1020.28125 C 944.082031 1018.199219 951.269531 1015.871094 958.507812 1013.539062 C 1092.597656 969.179688 1189.707031 897.363281 1189.707031 823.707031 C 1189.707031 753.328125 1098.148438 685.027344 971.742188 641.558594 L 971.742188 641.507812 C 959.199219 637.34375 946.660156 633.378906 934.117188 629.664062 C 936.199219 621.089844 938.082031 612.464844 939.917969 603.890625 C 968.519531 465.40625 949.683594 354.183594 886.230469 317.457031 C 825.109375 282.363281 725.421875 318.84375 624.597656 406.671875 C 614.582031 415.246094 604.867188 424.316406 595.546875 433.386719 C 589.25 427.339844 582.757812 421.292969 576.265625 415.496094 C 470.527344 321.617188 364.59375 282.117188 301.144531 319.089844 C 240.269531 354.429688 222.128906 459.210938 247.707031 590.160156 C 250.285156 603.195312 253.058594 615.933594 256.28125 628.96875 C 241.410156 633.132812 226.789062 637.792969 213.054688 642.699219 C 88.980469 685.671875 0 753.523438 0 823.707031 C 0 896.222656 94.78125 968.882812 223.765625 1013.046875 Z M 539.78125 1202.332031 C 501.460938 1237.425781 457.046875 1265.28125 408.714844 1284.363281 C 382.9375 1296.652344 353.195312 1297.84375 326.671875 1287.386719 C 289.742188 1266.023438 274.375 1183.992188 295.296875 1073.613281 C 297.871094 1060.628906 300.648438 1047.59375 303.871094 1034.804688 C 355.921875 1045.957031 408.417969 1053.640625 461.65625 1057.554688 C 492.339844 1101.023438 526 1142.605469 562.035156 1181.613281 C 554.601562 1188.800781 547.164062 1195.789062 539.730469 1202.28125 Z M 834.875 766.066406 C 823.96875 745.59375 812.816406 725.175781 801.167969 705.199219 C 789.765625 685.472656 777.917969 665.945312 765.625 646.664062 C 803.050781 651.324219 838.84375 657.566406 872.300781 665.25 C 861.59375 699.648438 849.054688 733.105469 834.875 766.066406 Z M 835.324219 881.75 C 850.195312 915.453125 863.230469 949.601562 874.582031 984.695312 C 838.542969 992.824219 802.109375 999.117188 765.378906 1003.28125 C 777.917969 983.753906 789.765625 963.777344 801.414062 943.804688 C 813.261719 923.332031 824.417969 902.664062 835.324219 881.75 Z M 808.453125 823.957031 C 792.890625 856.023438 776.132812 887.597656 758.289062 918.722656 C 740.640625 949.601562 721.804688 979.589844 702.074219 1009.328125 C 667.476562 1011.90625 631.4375 1013.046875 594.953125 1013.046875 C 558.46875 1013.046875 523.171875 1011.90625 489.019531 1009.773438 C 468.792969 980.28125 449.757812 950.046875 431.863281 919.171875 C 413.96875 888.292969 397.460938 856.917969 381.894531 824.847656 L 381.796875 824.847656 C 397.113281 792.78125 413.867188 761.40625 431.515625 730.527344 C 449.164062 699.648438 468.25 669.660156 488.226562 640.171875 C 523.074219 637.59375 558.617188 636.207031 594.902344 636.207031 C 631.1875 636.207031 666.929688 637.59375 701.578125 640.171875 C 721.308594 669.464844 740.144531 699.402344 758.042969 730.082031 C 775.9375 760.761719 792.640625 792.136719 808.453125 823.957031 Z M 388.242188 705.644531 C 376.839844 725.371094 365.6875 745.546875 355.226562 766.015625 C 340.601562 731.417969 328.261719 697.515625 318.046875 664.753906 C 351.507812 657.320312 387.050781 651.273438 423.980469 646.613281 C 411.738281 665.894531 399.640625 685.621094 388.242188 705.644531 Z M 355.277344 883.582031 C 365.984375 904.054688 376.890625 924.273438 388.488281 944.25 C 400.335938 964.472656 412.429688 984.695312 425.222656 1004.421875 C 388.984375 1000.457031 352.945312 994.65625 317.402344 986.972656 C 327.617188 953.519531 340.40625 918.921875 355.277344 883.582031 Z M 596.738281 1145.828125 C 573.042969 1120.304688 549.347656 1092 526.347656 1061.519531 C 548.652344 1062.460938 571.652344 1062.90625 594.902344 1062.90625 C 618.84375 1062.90625 642.292969 1062.460938 665.542969 1061.273438 C 644.175781 1090.761719 621.175781 1118.914062 596.738281 1145.828125 Z M 900.457031 1215.617188 C 898.328125 1243.917969 884.398438 1270.382812 862.089844 1288.277344 C 825.160156 1309.640625 746.390625 1281.785156 661.328125 1208.824219 C 651.5625 1200.449219 641.796875 1191.378906 631.832031 1182.109375 C 667.375 1142.855469 700.140625 1101.269531 729.886719 1057.605469 C 783.074219 1053.191406 836.066406 1045.0625 888.363281 1033.21875 C 890.695312 1042.734375 892.777344 1052.25 894.660156 1061.570312 C 906.058594 1111.777344 907.894531 1164.019531 900.457031 1215.617188 Z M 920.632812 677.542969 C 932.730469 681.011719 944.328125 684.730469 955.484375 688.445312 C 1063.746094 725.621094 1139.738281 780.933594 1139.738281 823.210938 C 1139.738281 868.761719 1058.640625 927.546875 942.695312 965.859375 C 936.199219 967.941406 929.707031 970.023438 922.964844 971.90625 C 906.703125 921.25 886.726562 871.785156 863.726562 823.660156 C 886.035156 776.273438 904.871094 727.453125 920.632812 677.542969 Z M 657.3125 444.292969 C 743.8125 369.050781 824.417969 339.5625 861.148438 360.675781 C 900.410156 383.226562 915.527344 474.277344 890.890625 593.925781 C 889.253906 601.808594 887.621094 609.492188 885.539062 617.171875 C 833.933594 605.574219 781.6875 597.199219 729.140625 592.539062 C 698.953125 549.269531 665.9375 507.933594 630.148438 469.125 C 639.21875 460.546875 648.042969 452.421875 657.3125 444.292969 Z M 595.347656 504.710938 C 619.738281 531.179688 642.738281 559.035156 664.105469 587.832031 C 618.101562 585.75 571.851562 585.75 525.851562 587.832031 C 548.601562 557.894531 572.101562 530.039062 595.347656 504.710938 Z M 325.78125 362.3125 C 364.84375 339.5625 451.492188 372.074219 542.804688 452.914062 C 548.601562 458.019531 554.402344 463.621094 560.449219 469.171875 C 524.414062 507.933594 491.199219 549.269531 460.761719 592.488281 C 408.265625 597.148438 356.21875 605.277344 304.613281 616.675781 C 301.589844 604.832031 299.0625 592.738281 296.484375 580.644531 C 274.625 468.183594 289.050781 383.425781 325.78125 362.3125 Z M 229.367188 689.835938 C 242.601562 685.175781 256.085938 681.011719 269.566406 677.046875 C 285.378906 727.453125 304.417969 776.96875 326.476562 824.800781 C 304.167969 873.371094 284.886719 923.53125 268.875 974.632812 L 268.824219 974.683594 C 259.058594 971.90625 249.539062 968.882812 240.023438 965.613281 C 190.550781 950.046875 134.289062 925.414062 93.640625 893.148438 C 70.191406 876.890625 54.378906 851.8125 49.96875 823.660156 C 49.96875 781.132812 123.382812 726.761719 229.367188 689.835938 Z M 229.367188 689.835938 "/>
</g>
</g>
</svg>
